<?xml version="1.0" encoding="utf-8"?>
<!-- Generator: Adobe Illustrator 21.0.0, SVG Export Plug-In . SVG Version: 6.00 Build 0)  -->
<svg version="1.1" id="Camada_1" xmlns="http://www.w3.org/2000/svg" xmlns:xlink="http://www.w3.org/1999/xlink" x="0px" y="0px"
	 viewBox="0 0 595.3 841.9" style="enable-background:new 0 0 595.3 841.9;" xml:space="preserve">
<style type="text/css">
	.st0{fill:#FFFFFF;stroke:#040506;stroke-miterlimit:10;}
</style>
<g>
	<rect x="57.4" y="56.7" class="st0" width="226.8" height="113.4"/>
	<rect x="70.9" y="70.9" class="st0" width="85" height="85"/>
	<rect x="184.3" y="70.9" class="st0" width="85" height="85"/>
</g>
<g>
	<rect x="311.1" y="56.7" class="st0" width="226.8" height="113.4"/>
	<rect x="324.6" y="70.9" class="st0" width="85" height="85"/>
	<rect x="437.9" y="70.9" class="st0" width="85" height="85"/>
</g>
<g>
	<rect x="57.4" y="198.4" class="st0" width="226.8" height="113.4"/>
	<rect x="70.9" y="212.6" class="st0" width="85" height="85"/>
	<rect x="184.3" y="212.6" class="st0" width="85" height="85"/>
</g>
<g>
	<rect x="311.1" y="198.4" class="st0" width="226.8" height="113.4"/>
	<rect x="324.6" y="212.6" class="st0" width="85" height="85"/>
	<rect x="437.9" y="212.6" class="st0" width="85" height="85"/>
</g>
<g>
	<rect x="57.4" y="340.2" class="st0" width="226.8" height="113.4"/>
	<rect x="70.9" y="354.4" class="st0" width="85" height="85"/>
	<rect x="184.3" y="354.3" class="st0" width="85" height="85"/>
</g>
<g>
	<rect x="311.1" y="340.2" class="st0" width="226.8" height="113.4"/>
	<rect x="324.6" y="354.4" class="st0" width="85" height="85"/>
	<rect x="437.9" y="354.3" class="st0" width="85" height="85"/>
</g>
<g>
	<rect x="57.4" y="481.9" class="st0" width="226.8" height="113.4"/>
	<rect x="70.9" y="496.1" class="st0" width="85" height="85"/>
	<rect x="184.3" y="496.1" class="st0" width="85" height="85"/>
</g>
<g>
	<rect x="311.1" y="481.9" class="st0" width="226.8" height="113.4"/>
	<rect x="324.6" y="496.1" class="st0" width="85" height="85"/>
	<rect x="437.9" y="496.1" class="st0" width="85" height="85"/>
</g>
<g>
	<rect x="57.4" y="623.6" class="st0" width="226.8" height="113.4"/>
	<rect x="70.9" y="637.8" class="st0" width="85" height="85"/>
	<rect x="184.3" y="637.8" class="st0" width="85" height="85"/>
</g>
<g>
	<rect x="311.1" y="623.6" class="st0" width="226.8" height="113.4"/>
	<rect x="324.6" y="637.8" class="st0" width="85" height="85"/>
	<rect x="437.9" y="637.8" class="st0" width="85" height="85"/>
</g>
</svg>
