<?xml version="1.0" encoding="utf-8"?>
<!-- Generator: Adobe Illustrator 23.0.0, SVG Export Plug-In . SVG Version: 6.00 Build 0)  -->
<svg version="1.1" id="Camada_1" xmlns="http://www.w3.org/2000/svg" xmlns:xlink="http://www.w3.org/1999/xlink" x="0px" y="0px"
	 viewBox="0 0 1920 1920" style="enable-background:new 0 0 1920 1920;" xml:space="preserve">
<path d="M1374.09,967.83c-0.15,66.04-5.91,138.15-21.15,209.31c-12.57,58.7-31.12,115.32-60.2,168.1
	c-26.78,48.61-61.07,90.87-106.14,123.84c-36.91,27-77.85,45.19-122.22,55.85c-38.46,9.24-77.52,12.44-117,11.42
	c-44.77-1.16-88.45-8.27-130.57-23.78c-56.96-20.96-104.49-55.26-143.2-101.89c-37.63-45.33-63.47-97.06-82.38-152.48
	c-16.88-49.48-27.58-100.39-34.31-152.18c-8.54-65.78-10.74-131.82-7.85-198.04c3.48-79.66,14.39-158.14,38.9-234.31
	c17.51-54.42,41.53-105.6,76.57-151.14C719.98,450.48,792.82,407.1,882.31,392c66.92-11.29,133.48-9.24,198.96,9.48
	c75.27,21.52,135.28,65.12,181.46,128.04c35.6,48.51,59.28,102.74,76.24,160.13c14.82,50.12,23.92,101.35,29.23,153.3
	C1372.2,882.28,1374.06,921.71,1374.09,967.83z M1127,790.16c-0.62-0.07-1.25-0.13-1.87-0.2c-0.87,1.37-1.78,2.71-2.59,4.12
	c-74.28,128.2-148.56,256.41-222.84,384.61c-8.93,15.41-18.12,30.67-26.85,46.2c-6.28,11.17-10.41,23.17-9.49,36.22
	c1.25,17.66,11.41,29.76,25.62,38.95c21.35,13.8,45.05,19.27,70.22,19.49c42.82,0.37,79.13-14.28,107.8-46.57
	c21.53-24.25,35.05-52.88,44.93-83.37c17.46-53.86,23.7-109.57,25.91-165.79c2.15-54.47,2.66-108.99-2.01-163.37
	C1133.8,836.94,1130,813.59,1127,790.16z M790.88,1099.28c1.64-2.89,2.54-4.41,3.38-5.96c46.71-85.83,93.43-171.65,140.13-257.48
	c26.33-48.4,52.81-96.72,78.88-145.26c16.09-29.96,12.28-56.45-10.34-79c-3.08-3.07-6.37-5.16-10.73-5.65
	c-8.75-1-17.47-2.75-26.24-3.1c-49.8-1.97-89.74,17.15-119.66,56.98c-18.03,24.01-29.63,51.18-38.28,79.71
	c-14.06,46.36-20.15,94.05-22.76,142.2c-3.52,64.97-3.21,129.93,2.93,194.78C788.85,1083.58,789.85,1090.64,790.88,1099.28z"/>
</svg>
